<svg width="186" height="70" viewBox="0 0 186 70" version="1.1" xmlns="http://www.w3.org/2000/svg"><title>fat-arrow-logo</title><desc>Created with Sketch.</desc><g stroke="none" stroke-width="1" fill="none" fill-rule="evenodd"><g transform="translate(0.000000, 15.000000)"><g transform="translate(75.000000, 0.000000)"><path d="M7 8L7 32 14 28 14 12.2 7 8Z" fill="#B9B9B9"/><path d="M21.4 20.5L0.9 7.7C0.4 7.4 0 6.7 0 6.2L0 0.7C0 0.1 0.4-0.1 0.8 0.2L26.2 16.5C26.5 16.8 26.8 17.2 26.9 17.7 27 17.8 27 17.9 27 18L27 22.9C27 22.9 27 22.9 27 22.9L27 23C27 23.1 27 23.2 26.9 23.3 26.8 23.8 26.5 24.2 26.2 24.5L0.8 40.8C0.4 41.1 0 40.9 0 40.3L0 34.9C0 34.3 0.4 33.7 0.9 33.4L21.4 20.5Z" fill="#1E90FF"/></g><g transform="translate(0.000000, 12.000000)"><rect fill="#B9B9B9" x="0" y="0" width="7" height="30" rx="1"/><rect fill="#1E90FF" x="0" y="12" width="27" height="7" rx="1"/><rect fill="#1E90FF" x="0" y="0" width="27" height="7" rx="1"/></g><path d="M29.6 25.6C29.6 28.7 31.7 31.5 35.3 31.5 37.3 31.5 39 30.5 40.5 29.2L40.7 29.2 41.1 31 46.5 31 46.5 20.4C46.5 14.2 43.5 11.5 38.6 11.5 35.6 11.5 32.9 12.5 30.2 14.1L32.5 18.3C34.5 17.2 35.9 16.7 37.3 16.7 38.9 16.7 39.8 17.3 39.9 18.7 32.6 19.4 29.6 21.7 29.6 25.6ZM35.8 25.1C35.8 24 36.8 23 39.9 22.6L39.9 25.1C39.2 25.9 38.6 26.4 37.6 26.4 36.4 26.4 35.8 25.9 35.8 25.1ZM51.6 23.7C51.6 28.3 53.7 31.5 58.6 31.5 60.7 31.5 62.1 31.1 63.1 30.8L62.1 26.1C61.7 26.2 61.1 26.4 60.5 26.4 59.2 26.4 58.2 25.7 58.2 23.6L58.2 17.1 62.5 17.1 62.5 12 58.2 12 58.2 7.1 52.8 7.1 52 12 49.1 12.2 49.1 17.1 51.6 17.1 51.6 23.7Z" fill="#4A4A4A"/><path d="M105.2 31L111.7 31 111.7 20.4C112.7 18.1 114.3 17.2 115.7 17.2 116.5 17.2 117.1 17.4 117.8 17.5L118.9 11.9C118.4 11.7 117.7 11.5 116.5 11.5 114.7 11.5 112.5 12.7 111.1 15.3L111 15.3 110.5 12 105.2 12 105.2 31ZM121.3 31L127.8 31 127.8 20.4C128.7 18.1 130.4 17.2 131.8 17.2 132.6 17.2 133.2 17.4 133.9 17.5L135 11.9C134.4 11.7 133.8 11.5 132.6 11.5 130.8 11.5 128.6 12.7 127.2 15.3L127.1 15.3 126.6 12 121.3 12 121.3 31ZM136 21.5C136 27.8 140.6 31.5 145.4 31.5 150.3 31.5 154.9 27.8 154.9 21.5 154.9 15.2 150.3 11.5 145.4 11.5 140.6 11.5 136 15.2 136 21.5ZM142.7 21.5C142.7 18.6 143.5 16.8 145.4 16.8 147.4 16.8 148.2 18.6 148.2 21.5 148.2 24.4 147.4 26.2 145.4 26.2 143.5 26.2 142.7 24.4 142.7 21.5ZM160.5 31L167.9 31 169.2 24.4C169.5 22.6 169.7 20.9 170 18.8L170.2 18.8C170.5 20.9 170.8 22.6 171.1 24.4L172.5 31 180.1 31 184.4 12 178.4 12 177 20C176.6 21.9 176.5 23.8 176.2 25.8L176 25.8C175.7 23.8 175.4 21.9 174.9 20L173.1 12 167.5 12 165.8 20C165.3 21.8 165 23.8 164.7 25.8L164.6 25.8C164.3 23.8 164.1 21.9 163.8 20L162.4 12 155.9 12 160.5 31Z" fill="#4A4A4A"/></g><path d="M138.9 57L140.6 57C142.5 57 143.6 55.8 143.6 53.7 143.6 51.6 142.5 50.4 140.5 50.4L138.9 50.4 138.9 57ZM139.7 56.3L139.7 51.1 140.5 51.1C142 51.1 142.8 52 142.8 53.7 142.8 55.4 142 56.3 140.5 56.3L139.7 56.3ZM144.6 54.6C144.6 56.2 145.6 57.1 146.9 57.1 147.6 57.1 148.1 56.9 148.5 56.6L148.2 56.1C147.9 56.3 147.5 56.5 147 56.5 146.1 56.5 145.5 55.8 145.4 54.8L148.7 54.8C148.7 54.6 148.7 54.5 148.7 54.3 148.7 52.9 148 52 146.8 52 145.7 52 144.6 53 144.6 54.6L144.6 54.6ZM145.4 54.2C145.5 53.2 146.1 52.7 146.8 52.7 147.5 52.7 148 53.2 148 54.2L145.4 54.2ZM151 57L152 57 153.7 52.1 152.9 52.1 152 54.9C151.8 55.4 151.7 55.9 151.5 56.3L151.5 56.3C151.3 55.9 151.2 55.4 151 54.9L150.1 52.1 149.3 52.1 151 57ZM156.2 56.2C156.8 56.7 157.6 57.1 158.5 57.1 159.9 57.1 160.8 56.3 160.8 55.3 160.8 54.3 160.2 53.8 159.4 53.5L158.5 53.1C158 52.9 157.4 52.6 157.4 52 157.4 51.4 157.9 51.1 158.6 51.1 159.2 51.1 159.7 51.3 160.1 51.7L160.5 51.1C160.1 50.7 159.4 50.3 158.6 50.3 157.4 50.3 156.5 51.1 156.5 52.1 156.5 53 157.3 53.5 157.9 53.8L158.8 54.2C159.4 54.4 159.9 54.7 159.9 55.3 159.9 56 159.4 56.4 158.5 56.4 157.8 56.4 157.2 56.1 156.7 55.6L156.2 56.2ZM162.7 56.6C163.2 56.9 163.6 57.1 164.1 57.1 165.2 57.1 166.2 56.2 166.2 54.5 166.2 53 165.5 52 164.3 52 163.7 52 163.2 52.3 162.7 52.7L162.7 52.7 162.6 52.1 161.9 52.1 161.9 59.1 162.8 59.1 162.8 57.4 162.7 56.6ZM162.8 55.9L162.8 53.4C163.2 52.9 163.6 52.7 164.1 52.7 165 52.7 165.3 53.4 165.3 54.5 165.3 55.7 164.7 56.4 163.9 56.4 163.6 56.4 163.2 56.3 162.8 55.9L162.8 55.9ZM167.1 55.7C167.1 56.6 167.7 57.1 168.5 57.1 169.1 57.1 169.7 56.8 170.1 56.4L170.2 56.4 170.2 57 170.9 57 170.9 54C170.9 52.8 170.4 52 169.2 52 168.4 52 167.8 52.4 167.3 52.7L167.6 53.2C168 53 168.5 52.7 169.1 52.7 169.9 52.7 170.1 53.3 170.1 53.9 168 54.2 167.1 54.7 167.1 55.7L167.1 55.7ZM167.9 55.7C167.9 55.1 168.5 54.7 170.1 54.5L170.1 55.8C169.6 56.2 169.2 56.5 168.8 56.5 168.3 56.5 167.9 56.2 167.9 55.7L167.9 55.7ZM172.1 54.6C172.1 56.2 173.1 57.1 174.4 57.1 175 57.1 175.5 56.9 176 56.5L175.6 56C175.3 56.2 174.9 56.4 174.5 56.4 173.6 56.4 173 55.7 173 54.6 173 53.5 173.6 52.7 174.5 52.7 174.9 52.7 175.2 52.9 175.5 53.1L175.9 52.6C175.5 52.3 175.1 52 174.4 52 173.2 52 172.1 53 172.1 54.6L172.1 54.6ZM176.5 54.6C176.5 56.2 177.5 57.1 178.8 57.1 179.4 57.1 180 56.9 180.4 56.6L180.1 56.1C179.7 56.3 179.3 56.5 178.9 56.5 178 56.5 177.3 55.8 177.3 54.8L180.5 54.8C180.6 54.6 180.6 54.5 180.6 54.3 180.6 52.9 179.9 52 178.6 52 177.5 52 176.5 53 176.5 54.6L176.5 54.6ZM177.3 54.2C177.4 53.2 178 52.7 178.7 52.7 179.4 52.7 179.9 53.2 179.9 54.2L177.3 54.2Z" fill="#4E4E4E"/></g></svg>